# xmcd
#
# Track frame offsets:
#	198
#	13489
#	27125
#	38759
#	44525
#	52409
#	61298
#	72386
#	82873
#	94370
#	102637
#	110103
#	121655
#	132565
#	144186
#	157498
#	166393
#	173170
#	181612
#	189858
#	198765
#	209314
#	217977
#	223967
#	234529
#	244173
#	252994
#	263530
#	276467
#	288403
#	300519
#	313079
#
# Disc length: 4355 seconds
#
# Revision: 1
# Processed by: cddbd v1.5.2PL0 Copyright (c) Steve Scherf et al.
# Submitted via: audiograbber 1.83.01
#
DISCID=e7110120
DTITLE=Mary Higgins Clark - Mit Deinem letzten Atemzug
DYEAR=1900
DGENRE=
TTITLE0=101
TTITLE1=102
TTITLE2=103
TTITLE3=104
TTITLE4=105
TTITLE5=106
TTITLE6=107
TTITLE7=108
TTITLE8=1019
TTITLE9=110
TTITLE10=111
TTITLE11=112
TTITLE12=113
TTITLE13=114
TTITLE14=115
TTITLE15=116
TTITLE16=117
TTITLE17=118
TTITLE18=119
TTITLE19=120
TTITLE20=121
TTITLE21=122
TTITLE22=123
TTITLE23=124
TTITLE24=125
TTITLE25=126
TTITLE26=127
TTITLE27=128
TTITLE28=129
TTITLE29=130
TTITLE30=131
TTITLE31=132
EXTD=
EXTT0=
EXTT1=
EXTT2=
EXTT3=
EXTT4=
EXTT5=
EXTT6=
EXTT7=
EXTT8=
EXTT9=
EXTT10=
EXTT11=
EXTT12=
EXTT13=
EXTT14=
EXTT15=
EXTT16=
EXTT17=
EXTT18=
EXTT19=
EXTT20=
EXTT21=
EXTT22=
EXTT23=
EXTT24=
EXTT25=
EXTT26=
EXTT27=
EXTT28=
EXTT29=
EXTT30=
EXTT31=
PLAYORDER=
